<svg width="236" height="127" viewBox="0 0 236 127" fill="none" xmlns="http://www.w3.org/2000/svg">
<path d="M6.448 56.416C5.02667 56.416 4.316 55.7573 4.316 54.44V22.72C4.316 22.2693 4.472 21.888 4.784 21.576C5.13067 21.2293 5.52933 21.056 5.98 21.056H15.34C17.836 21.056 19.9333 21.4893 21.632 22.356C23.3653 23.188 24.648 24.28 25.48 25.632C26.3467 26.9493 26.78 28.3187 26.78 29.74C26.78 31.4387 26.4507 32.8947 25.792 34.108C25.168 35.3213 24.3533 36.292 23.348 37.02C27.6813 38.6147 29.848 41.4747 29.848 45.6C29.848 49.0667 27.8893 51.736 23.972 53.608C20.0547 55.48 14.2133 56.416 6.448 56.416ZM17.472 36.136C18.5813 36.136 19.604 35.8413 20.54 35.252C21.476 34.6627 22.204 33.8827 22.724 32.912C23.244 31.9413 23.504 30.936 23.504 29.896C23.504 28.232 22.776 26.88 21.32 25.84C19.864 24.7653 17.8707 24.228 15.34 24.228H7.696V36.136H17.472ZM7.696 53.296C13.1733 53.2613 17.68 52.6027 21.216 51.32C24.752 50.0373 26.52 48.1307 26.52 45.6C26.52 43.728 25.74 42.22 24.18 41.076C22.62 39.8973 20.54 39.308 17.94 39.308H7.696V53.296ZM43.3741 56.468C41.4328 56.468 39.8901 56.0347 38.7461 55.168C37.6368 54.3013 36.8221 52.828 36.3021 50.748C35.7821 48.668 35.5221 45.7733 35.5221 42.064C35.5221 38.0773 35.7301 34.8013 36.1461 32.236C36.2501 31.5427 36.4234 31.0573 36.6661 30.78C36.9434 30.468 37.3248 30.312 37.8101 30.312C38.2261 30.312 38.5728 30.4507 38.8501 30.728C39.1621 31.0053 39.3181 31.3867 39.3181 31.872C39.3181 32.392 39.2661 33.068 39.1621 33.9C38.8501 36.396 38.6941 39.5333 38.6941 43.312C38.6941 46.952 39.0581 49.5693 39.7861 51.164C40.5141 52.7587 41.7274 53.556 43.4261 53.556C44.9861 53.556 46.5461 53.1573 48.1061 52.36C49.7008 51.528 50.8274 50.7307 51.4861 49.968C51.9021 49.4827 52.1101 48.7027 52.1101 47.628L52.3181 31.768C52.3181 31.352 52.4741 31.0053 52.7861 30.728C53.0981 30.4507 53.4621 30.312 53.8781 30.312C54.2941 30.312 54.6581 30.4507 54.9701 30.728C55.2821 31.0053 55.4381 31.352 55.4381 31.768V54.7C55.4381 55.116 55.2648 55.4973 54.9181 55.844C54.5714 56.156 54.1728 56.312 53.7221 56.312C53.1674 56.312 52.7168 56.1387 52.3701 55.792C52.0581 55.4453 51.9021 55.012 51.9021 54.492V52.516C51.1394 53.5213 49.9608 54.44 48.3661 55.272C46.8061 56.0693 45.1421 56.468 43.3741 56.468ZM64.5247 56.312C64.1087 56.312 63.7274 56.156 63.3807 55.844C63.034 55.532 62.8607 55.1853 62.8607 54.804V31.924C62.8607 31.4733 63.0167 31.1093 63.3287 30.832C63.6754 30.52 64.074 30.364 64.5247 30.364C65.01 30.364 65.4087 30.52 65.7207 30.832C66.0327 31.1093 66.1887 31.4733 66.1887 31.924V36.344C67.1594 34.6453 68.3554 33.2067 69.7767 32.028C71.2327 30.8147 72.9314 30.208 74.8727 30.208C76.398 30.208 77.49 30.6413 78.1487 31.508C78.842 32.34 79.1887 33.3453 79.1887 34.524V36.188C79.1887 36.6387 79.0327 37.02 78.7207 37.332C78.4087 37.6093 78.0274 37.748 77.5767 37.748C77.0567 37.748 76.6754 37.592 76.4327 37.28C76.19 36.968 76.0687 36.5867 76.0687 36.136V34.94C76.0687 33.9347 75.4794 33.432 74.3007 33.432C72.2554 33.432 70.1407 34.888 67.9567 37.8C67.4367 38.4933 67.0034 39.36 66.6567 40.4C66.3447 41.44 66.1887 42.4107 66.1887 43.312L66.1367 54.804C66.1367 55.1853 65.9634 55.532 65.6167 55.844C65.3047 56.156 64.9407 56.312 64.5247 56.312ZM85.1927 56.312C84.742 56.312 84.3433 56.156 83.9967 55.844C83.6847 55.532 83.5287 55.1853 83.5287 54.804V31.872C83.5287 31.4213 83.6847 31.0573 83.9967 30.78C84.3433 30.468 84.742 30.312 85.1927 30.312C85.6433 30.312 86.0247 30.468 86.3367 30.78C86.6487 31.0573 86.8047 31.4213 86.8047 31.872V40.088C87.81 36.968 89.1967 34.576 90.9647 32.912C92.7673 31.2133 94.7953 30.364 97.0487 30.364C98.9553 30.364 100.463 30.8493 101.573 31.82C102.682 32.7907 103.479 34.3333 103.965 36.448C104.45 38.528 104.693 41.336 104.693 44.872C104.693 48.3387 104.675 50.6093 104.641 51.684V54.648C104.641 55.0987 104.485 55.4973 104.173 55.844C103.895 56.156 103.531 56.312 103.081 56.312C102.665 56.312 102.301 56.156 101.989 55.844C101.677 55.4973 101.521 55.116 101.521 54.7V51.788C101.486 50.7133 101.469 48.4773 101.469 45.08C101.469 41.856 101.295 39.412 100.949 37.748C100.637 36.084 100.134 34.9573 99.4407 34.368C98.782 33.744 97.8287 33.432 96.5807 33.432C95.402 33.432 94.2407 33.8653 93.0967 34.732C91.9527 35.5987 90.9473 36.8293 90.0807 38.424C88.9367 40.504 88.1047 42.4627 87.5847 44.3C87.0993 46.1373 86.8393 48.0267 86.8047 49.968L86.7527 54.596C86.7527 55.0813 86.5967 55.4973 86.2847 55.844C86.0073 56.156 85.6433 56.312 85.1927 56.312ZM119.655 56.312C117.956 56.312 116.414 55.844 115.027 54.908C113.675 53.972 112.6 52.62 111.803 50.852C111.006 49.0493 110.607 46.952 110.607 44.56C110.607 40.1227 111.595 36.656 113.571 34.16C115.547 31.664 118.268 30.416 121.735 30.416C124.058 30.416 126.363 31.0227 128.651 32.236L128.911 21.888C128.911 21.4373 129.084 21.056 129.431 20.744C129.778 20.3973 130.176 20.224 130.627 20.224C131.043 20.224 131.407 20.3973 131.719 20.744C132.066 21.0907 132.239 21.4893 132.239 21.94L131.459 54.752C131.459 55.2027 131.286 55.584 130.939 55.896C130.627 56.1733 130.246 56.312 129.795 56.312C129.31 56.312 128.911 56.1387 128.599 55.792C128.287 55.4107 128.148 54.9773 128.183 54.492L128.235 52.36C125.531 54.9947 122.671 56.312 119.655 56.312ZM119.707 53.244C121.302 53.244 122.758 52.9147 124.075 52.256C125.392 51.5973 126.415 50.8173 127.143 49.916C127.906 48.98 128.304 48.1653 128.339 47.472L128.599 35.46C127.836 35.0093 126.831 34.576 125.583 34.16C124.37 33.744 123.139 33.536 121.891 33.536C119.222 33.536 117.211 34.4893 115.859 36.396C114.507 38.3027 113.831 40.972 113.831 44.404C113.831 47.1773 114.351 49.344 115.391 50.904C116.466 52.464 117.904 53.244 119.707 53.244ZM148.737 56.312C146.761 56.312 144.958 55.792 143.329 54.752C141.734 53.6773 140.469 52.2387 139.533 50.436C138.632 48.5987 138.181 46.5707 138.181 44.352C138.181 41.9947 138.701 39.7413 139.741 37.592C140.816 35.4427 142.289 33.7093 144.161 32.392C146.033 31.04 148.096 30.364 150.349 30.364C152.29 30.364 154.058 30.9013 155.653 31.976C157.282 33.016 158.548 34.4547 159.449 36.292C160.385 38.0947 160.853 40.088 160.853 42.272C160.853 44.768 160.298 47.0907 159.189 49.24C158.08 51.3893 156.589 53.1053 154.717 54.388C152.88 55.6707 150.886 56.312 148.737 56.312ZM148.945 53.348C150.436 53.348 151.84 52.8453 153.157 51.84C154.474 50.8347 155.532 49.5 156.329 47.836C157.126 46.172 157.525 44.404 157.525 42.532C157.525 40.9027 157.196 39.3947 156.537 38.008C155.878 36.5867 154.977 35.46 153.833 34.628C152.724 33.7613 151.476 33.328 150.089 33.328C148.564 33.328 147.142 33.848 145.825 34.888C144.542 35.8933 143.502 37.2453 142.705 38.944C141.942 40.608 141.561 42.376 141.561 44.248C141.561 46.0507 141.89 47.6453 142.549 49.032C143.242 50.384 144.161 51.4413 145.305 52.204C146.449 52.9667 147.662 53.348 148.945 53.348ZM170.186 56.312C169.77 56.312 169.406 56.1907 169.094 55.948C168.782 55.6707 168.574 55.324 168.47 54.908L163.79 32.704L163.686 31.872C163.686 31.456 163.825 31.092 164.102 30.78C164.414 30.468 164.796 30.312 165.246 30.312C165.662 30.312 166.009 30.4507 166.286 30.728C166.598 30.9707 166.789 31.3 166.858 31.716L170.498 50.02L176.894 31.508C176.998 31.196 177.206 30.9187 177.518 30.676C177.83 30.4333 178.177 30.312 178.558 30.312C178.94 30.312 179.286 30.4507 179.598 30.728C179.945 31.0053 180.153 31.3347 180.222 31.716L184.694 50.28L190.258 31.612C190.362 31.2653 190.553 30.9707 190.83 30.728C191.142 30.4853 191.472 30.364 191.818 30.364C192.269 30.364 192.65 30.52 192.962 30.832C193.309 31.144 193.482 31.5253 193.482 31.976C193.482 32.08 193.448 32.184 193.378 32.288C193.344 32.392 193.326 32.4613 193.326 32.496L186.15 55.064C185.838 55.896 185.301 56.312 184.538 56.312C184.192 56.312 183.862 56.208 183.55 56C183.273 55.7573 183.082 55.428 182.978 55.012L178.35 36.76L171.694 55.116C171.556 55.4627 171.348 55.7573 171.07 56C170.793 56.208 170.498 56.312 170.186 56.312ZM199.704 56.312C199.254 56.312 198.855 56.156 198.508 55.844C198.196 55.532 198.04 55.1853 198.04 54.804V31.872C198.04 31.4213 198.196 31.0573 198.508 30.78C198.855 30.468 199.254 30.312 199.704 30.312C200.155 30.312 200.536 30.468 200.848 30.78C201.16 31.0573 201.316 31.4213 201.316 31.872V40.088C202.322 36.968 203.708 34.576 205.476 32.912C207.279 31.2133 209.307 30.364 211.56 30.364C213.467 30.364 214.975 30.8493 216.084 31.82C217.194 32.7907 217.991 34.3333 218.476 36.448C218.962 38.528 219.204 41.336 219.204 44.872C219.204 48.3387 219.187 50.6093 219.152 51.684V54.648C219.152 55.0987 218.996 55.4973 218.684 55.844C218.407 56.156 218.043 56.312 217.592 56.312C217.176 56.312 216.812 56.156 216.5 55.844C216.188 55.4973 216.032 55.116 216.032 54.7V51.788C215.998 50.7133 215.98 48.4773 215.98 45.08C215.98 41.856 215.807 39.412 215.46 37.748C215.148 36.084 214.646 34.9573 213.952 34.368C213.294 33.744 212.34 33.432 211.092 33.432C209.914 33.432 208.752 33.8653 207.608 34.732C206.464 35.5987 205.459 36.8293 204.592 38.424C203.448 40.504 202.616 42.4627 202.096 44.3C201.611 46.1373 201.351 48.0267 201.316 49.968L201.264 54.596C201.264 55.0813 201.108 55.4973 200.796 55.844C200.519 56.156 200.155 56.312 199.704 56.312Z" fill="#3C5B6F"/>
<circle cx="169.5" cy="63.5" r="63.5" fill="#3C5B6F"/>
<path d="M6.448 56.416C5.02667 56.416 4.316 55.7573 4.316 54.44V22.72C4.316 22.2693 4.472 21.888 4.784 21.576C5.13067 21.2293 5.52933 21.056 5.98 21.056H15.34C17.836 21.056 19.9333 21.4893 21.632 22.356C23.3653 23.188 24.648 24.28 25.48 25.632C26.3467 26.9493 26.78 28.3187 26.78 29.74C26.78 31.4387 26.4507 32.8947 25.792 34.108C25.168 35.3213 24.3533 36.292 23.348 37.02C27.6813 38.6147 29.848 41.4747 29.848 45.6C29.848 49.0667 27.8893 51.736 23.972 53.608C20.0547 55.48 14.2133 56.416 6.448 56.416ZM17.472 36.136C18.5813 36.136 19.604 35.8413 20.54 35.252C21.476 34.6627 22.204 33.8827 22.724 32.912C23.244 31.9413 23.504 30.936 23.504 29.896C23.504 28.232 22.776 26.88 21.32 25.84C19.864 24.7653 17.8707 24.228 15.34 24.228H7.696V36.136H17.472ZM7.696 53.296C13.1733 53.2613 17.68 52.6027 21.216 51.32C24.752 50.0373 26.52 48.1307 26.52 45.6C26.52 43.728 25.74 42.22 24.18 41.076C22.62 39.8973 20.54 39.308 17.94 39.308H7.696V53.296ZM43.3741 56.468C41.4328 56.468 39.8901 56.0347 38.7461 55.168C37.6368 54.3013 36.8221 52.828 36.3021 50.748C35.7821 48.668 35.5221 45.7733 35.5221 42.064C35.5221 38.0773 35.7301 34.8013 36.1461 32.236C36.2501 31.5427 36.4234 31.0573 36.6661 30.78C36.9434 30.468 37.3248 30.312 37.8101 30.312C38.2261 30.312 38.5728 30.4507 38.8501 30.728C39.1621 31.0053 39.3181 31.3867 39.3181 31.872C39.3181 32.392 39.2661 33.068 39.1621 33.9C38.8501 36.396 38.6941 39.5333 38.6941 43.312C38.6941 46.952 39.0581 49.5693 39.7861 51.164C40.5141 52.7587 41.7274 53.556 43.4261 53.556C44.9861 53.556 46.5461 53.1573 48.1061 52.36C49.7008 51.528 50.8274 50.7307 51.4861 49.968C51.9021 49.4827 52.1101 48.7027 52.1101 47.628L52.3181 31.768C52.3181 31.352 52.4741 31.0053 52.7861 30.728C53.0981 30.4507 53.4621 30.312 53.8781 30.312C54.2941 30.312 54.6581 30.4507 54.9701 30.728C55.2821 31.0053 55.4381 31.352 55.4381 31.768V54.7C55.4381 55.116 55.2648 55.4973 54.9181 55.844C54.5714 56.156 54.1728 56.312 53.7221 56.312C53.1674 56.312 52.7168 56.1387 52.3701 55.792C52.0581 55.4453 51.9021 55.012 51.9021 54.492V52.516C51.1394 53.5213 49.9608 54.44 48.3661 55.272C46.8061 56.0693 45.1421 56.468 43.3741 56.468ZM64.5247 56.312C64.1087 56.312 63.7274 56.156 63.3807 55.844C63.034 55.532 62.8607 55.1853 62.8607 54.804V31.924C62.8607 31.4733 63.0167 31.1093 63.3287 30.832C63.6754 30.52 64.074 30.364 64.5247 30.364C65.01 30.364 65.4087 30.52 65.7207 30.832C66.0327 31.1093 66.1887 31.4733 66.1887 31.924V36.344C67.1594 34.6453 68.3554 33.2067 69.7767 32.028C71.2327 30.8147 72.9314 30.208 74.8727 30.208C76.398 30.208 77.49 30.6413 78.1487 31.508C78.842 32.34 79.1887 33.3453 79.1887 34.524V36.188C79.1887 36.6387 79.0327 37.02 78.7207 37.332C78.4087 37.6093 78.0274 37.748 77.5767 37.748C77.0567 37.748 76.6754 37.592 76.4327 37.28C76.19 36.968 76.0687 36.5867 76.0687 36.136V34.94C76.0687 33.9347 75.4794 33.432 74.3007 33.432C72.2554 33.432 70.1407 34.888 67.9567 37.8C67.4367 38.4933 67.0034 39.36 66.6567 40.4C66.3447 41.44 66.1887 42.4107 66.1887 43.312L66.1367 54.804C66.1367 55.1853 65.9634 55.532 65.6167 55.844C65.3047 56.156 64.9407 56.312 64.5247 56.312ZM85.1927 56.312C84.742 56.312 84.3433 56.156 83.9967 55.844C83.6847 55.532 83.5287 55.1853 83.5287 54.804V31.872C83.5287 31.4213 83.6847 31.0573 83.9967 30.78C84.3433 30.468 84.742 30.312 85.1927 30.312C85.6433 30.312 86.0247 30.468 86.3367 30.78C86.6487 31.0573 86.8047 31.4213 86.8047 31.872V40.088C87.81 36.968 89.1967 34.576 90.9647 32.912C92.7673 31.2133 94.7953 30.364 97.0487 30.364C98.9553 30.364 100.463 30.8493 101.573 31.82C102.682 32.7907 103.479 34.3333 103.965 36.448C104.45 38.528 104.693 41.336 104.693 44.872C104.693 48.3387 104.675 50.6093 104.641 51.684V54.648C104.641 55.0987 104.485 55.4973 104.173 55.844C103.895 56.156 103.531 56.312 103.081 56.312C102.665 56.312 102.301 56.156 101.989 55.844C101.677 55.4973 101.521 55.116 101.521 54.7V51.788C101.486 50.7133 101.469 48.4773 101.469 45.08C101.469 41.856 101.295 39.412 100.949 37.748C100.637 36.084 100.134 34.9573 99.4407 34.368C98.782 33.744 97.8287 33.432 96.5807 33.432C95.402 33.432 94.2407 33.8653 93.0967 34.732C91.9527 35.5987 90.9473 36.8293 90.0807 38.424C88.9367 40.504 88.1047 42.4627 87.5847 44.3C87.0993 46.1373 86.8393 48.0267 86.8047 49.968L86.7527 54.596C86.7527 55.0813 86.5967 55.4973 86.2847 55.844C86.0073 56.156 85.6433 56.312 85.1927 56.312Z" fill="#3C5B6F"/>
<path d="M119.655 56.312C117.956 56.312 116.414 55.844 115.027 54.908C113.675 53.972 112.6 52.62 111.803 50.852C111.006 49.0493 110.607 46.952 110.607 44.56C110.607 40.1227 111.595 36.656 113.571 34.16C115.547 31.664 118.268 30.416 121.735 30.416C124.058 30.416 126.363 31.0227 128.651 32.236L128.911 21.888C128.911 21.4373 129.084 21.056 129.431 20.744C129.778 20.3973 130.176 20.224 130.627 20.224C131.043 20.224 131.407 20.3973 131.719 20.744C132.066 21.0907 132.239 21.4893 132.239 21.94L131.459 54.752C131.459 55.2027 131.286 55.584 130.939 55.896C130.627 56.1733 130.246 56.312 129.795 56.312C129.31 56.312 128.911 56.1387 128.599 55.792C128.287 55.4107 128.148 54.9773 128.183 54.492L128.235 52.36C125.531 54.9947 122.671 56.312 119.655 56.312ZM119.707 53.244C121.302 53.244 122.758 52.9147 124.075 52.256C125.392 51.5973 126.415 50.8173 127.143 49.916C127.906 48.98 128.304 48.1653 128.339 47.472L128.599 35.46C127.836 35.0093 126.831 34.576 125.583 34.16C124.37 33.744 123.139 33.536 121.891 33.536C119.222 33.536 117.211 34.4893 115.859 36.396C114.507 38.3027 113.831 40.972 113.831 44.404C113.831 47.1773 114.351 49.344 115.391 50.904C116.466 52.464 117.904 53.244 119.707 53.244ZM148.737 56.312C146.761 56.312 144.958 55.792 143.329 54.752C141.734 53.6773 140.469 52.2387 139.533 50.436C138.632 48.5987 138.181 46.5707 138.181 44.352C138.181 41.9947 138.701 39.7413 139.741 37.592C140.816 35.4427 142.289 33.7093 144.161 32.392C146.033 31.04 148.096 30.364 150.349 30.364C152.29 30.364 154.058 30.9013 155.653 31.976C157.282 33.016 158.548 34.4547 159.449 36.292C160.385 38.0947 160.853 40.088 160.853 42.272C160.853 44.768 160.298 47.0907 159.189 49.24C158.08 51.3893 156.589 53.1053 154.717 54.388C152.88 55.6707 150.886 56.312 148.737 56.312ZM148.945 53.348C150.436 53.348 151.84 52.8453 153.157 51.84C154.474 50.8347 155.532 49.5 156.329 47.836C157.126 46.172 157.525 44.404 157.525 42.532C157.525 40.9027 157.196 39.3947 156.537 38.008C155.878 36.5867 154.977 35.46 153.833 34.628C152.724 33.7613 151.476 33.328 150.089 33.328C148.564 33.328 147.142 33.848 145.825 34.888C144.542 35.8933 143.502 37.2453 142.705 38.944C141.942 40.608 141.561 42.376 141.561 44.248C141.561 46.0507 141.89 47.6453 142.549 49.032C143.242 50.384 144.161 51.4413 145.305 52.204C146.449 52.9667 147.662 53.348 148.945 53.348ZM170.186 56.312C169.77 56.312 169.406 56.1907 169.094 55.948C168.782 55.6707 168.574 55.324 168.47 54.908L163.79 32.704L163.686 31.872C163.686 31.456 163.825 31.092 164.102 30.78C164.414 30.468 164.796 30.312 165.246 30.312C165.662 30.312 166.009 30.4507 166.286 30.728C166.598 30.9707 166.789 31.3 166.858 31.716L170.498 50.02L176.894 31.508C176.998 31.196 177.206 30.9187 177.518 30.676C177.83 30.4333 178.177 30.312 178.558 30.312C178.94 30.312 179.286 30.4507 179.598 30.728C179.945 31.0053 180.153 31.3347 180.222 31.716L184.694 50.28L190.258 31.612C190.362 31.2653 190.553 30.9707 190.83 30.728C191.142 30.4853 191.472 30.364 191.818 30.364C192.269 30.364 192.65 30.52 192.962 30.832C193.309 31.144 193.482 31.5253 193.482 31.976C193.482 32.08 193.448 32.184 193.378 32.288C193.344 32.392 193.326 32.4613 193.326 32.496L186.15 55.064C185.838 55.896 185.301 56.312 184.538 56.312C184.192 56.312 183.862 56.208 183.55 56C183.273 55.7573 183.082 55.428 182.978 55.012L178.35 36.76L171.694 55.116C171.556 55.4627 171.348 55.7573 171.07 56C170.793 56.208 170.498 56.312 170.186 56.312ZM199.704 56.312C199.254 56.312 198.855 56.156 198.508 55.844C198.196 55.532 198.04 55.1853 198.04 54.804V31.872C198.04 31.4213 198.196 31.0573 198.508 30.78C198.855 30.468 199.254 30.312 199.704 30.312C200.155 30.312 200.536 30.468 200.848 30.78C201.16 31.0573 201.316 31.4213 201.316 31.872V40.088C202.322 36.968 203.708 34.576 205.476 32.912C207.279 31.2133 209.307 30.364 211.56 30.364C213.467 30.364 214.975 30.8493 216.084 31.82C217.194 32.7907 217.991 34.3333 218.476 36.448C218.962 38.528 219.204 41.336 219.204 44.872C219.204 48.3387 219.187 50.6093 219.152 51.684V54.648C219.152 55.0987 218.996 55.4973 218.684 55.844C218.407 56.156 218.043 56.312 217.592 56.312C217.176 56.312 216.812 56.156 216.5 55.844C216.188 55.4973 216.032 55.116 216.032 54.7V51.788C215.998 50.7133 215.98 48.4773 215.98 45.08C215.98 41.856 215.807 39.412 215.46 37.748C215.148 36.084 214.646 34.9573 213.952 34.368C213.294 33.744 212.34 33.432 211.092 33.432C209.914 33.432 208.752 33.8653 207.608 34.732C206.464 35.5987 205.459 36.8293 204.592 38.424C203.448 40.504 202.616 42.4627 202.096 44.3C201.611 46.1373 201.351 48.0267 201.316 49.968L201.264 54.596C201.264 55.0813 201.108 55.4973 200.796 55.844C200.519 56.156 200.155 56.312 199.704 56.312Z" fill="white"/>
<path d="M14.04 103.312C11.0587 103.312 8.45867 102.653 6.24 101.336C4.056 100.019 2.51333 98.4067 1.612 96.5C1.23067 95.668 1.04 94.992 1.04 94.472C1.04 93.744 1.3 93.1373 1.82 92.652C2.34 92.132 2.964 91.872 3.692 91.872C4.316 91.872 4.85333 92.0453 5.304 92.392C5.75467 92.7387 6.084 93.2067 6.292 93.796C6.84667 95.2867 7.86933 96.4307 9.36 97.228C10.8507 98.0253 12.4453 98.424 14.144 98.424C16.2933 98.424 18.0613 97.9213 19.448 96.916C20.8693 95.876 21.58 94.6107 21.58 93.12C21.58 91.976 21.008 90.936 19.864 90C18.7547 89.064 16.848 88.2147 14.144 87.452C10.6427 86.4813 7.88667 85.2333 5.876 83.708C3.86533 82.148 2.86 80.016 2.86 77.312C2.86 75.4747 3.34533 73.8453 4.316 72.424C5.32133 70.968 6.74267 69.8413 8.58 69.044C10.4173 68.2467 12.5667 67.848 15.028 67.848C18.564 67.848 21.3373 68.5413 23.348 69.928C25.3933 71.3147 26.416 73.1693 26.416 75.492C26.416 76.2547 26.1733 76.896 25.688 77.416C25.2027 77.936 24.596 78.196 23.868 78.196C23.244 78.196 22.7067 77.988 22.256 77.572C21.8053 77.156 21.5453 76.636 21.476 76.012C21.3373 75.0413 20.696 74.244 19.552 73.62C18.408 72.9613 16.9 72.632 15.028 72.632C12.7053 72.632 10.9373 73.0307 9.724 73.828C8.51067 74.5907 7.904 75.6307 7.904 76.948C7.904 78.1613 8.528 79.184 9.776 80.016C11.024 80.848 13.0693 81.68 15.912 82.512C19.4133 83.5173 22.0653 84.8693 23.868 86.568C25.6707 88.2667 26.572 90.364 26.572 92.86C26.572 94.8013 26 96.5693 24.856 98.164C23.712 99.7587 22.1693 101.024 20.228 101.96C18.3213 102.861 16.2587 103.312 14.04 103.312ZM36.5507 103.364C35.8921 103.364 35.3027 103.121 34.7827 102.636C34.2974 102.151 34.0547 101.579 34.0547 100.92V82.356H29.9467C29.2534 82.356 28.6641 82.1133 28.1787 81.628C27.6934 81.108 27.4507 80.5187 27.4507 79.86C27.4507 79.0973 27.7107 78.4907 28.2307 78.04C28.7507 77.5547 29.3574 77.312 30.0507 77.312H34.0547V71.748C34.0547 71.0893 34.2974 70.5 34.7827 69.98C35.2681 69.46 35.8574 69.2 36.5507 69.2C37.2787 69.2 37.8681 69.46 38.3187 69.98C38.8041 70.4653 39.0467 71.0547 39.0467 71.748V77.312H43.4667C44.1601 77.312 44.7494 77.5547 45.2347 78.04C45.7201 78.5253 45.9627 79.132 45.9627 79.86C45.9627 80.5187 45.7201 81.108 45.2347 81.628C44.7494 82.1133 44.1601 82.356 43.4667 82.356H39.0467V100.92C39.0467 101.579 38.8041 102.151 38.3187 102.636C37.8334 103.121 37.2441 103.364 36.5507 103.364ZM56.2132 103.468C54.3412 103.468 52.8506 103.069 51.7412 102.272C50.6319 101.44 49.7999 99.9493 49.2452 97.8C48.6906 95.6507 48.4132 92.5653 48.4132 88.544C48.4132 87.192 48.4652 85.7013 48.5692 84.072C48.6732 82.4427 48.8119 81.0733 48.9852 79.964C49.1239 79.0973 49.3839 78.4387 49.7652 77.988C50.1466 77.5373 50.7012 77.312 51.4292 77.312C52.1226 77.312 52.7119 77.52 53.1972 77.936C53.6826 78.352 53.9252 78.9587 53.9252 79.756L53.8212 81.212C53.4746 84.1587 53.3012 86.984 53.3012 89.688C53.3012 93.224 53.5959 95.6333 54.1852 96.916C54.8092 98.164 55.6586 98.788 56.7332 98.788C57.9812 98.788 59.2639 98.4587 60.5812 97.8C61.8986 97.1067 62.8346 96.448 63.3892 95.824C63.5972 95.616 63.7012 95.1827 63.7012 94.524L63.8052 79.704C63.8052 79.0107 64.0479 78.4387 64.5332 77.988C65.0532 77.5373 65.6252 77.312 66.2492 77.312C66.9079 77.312 67.4799 77.5373 67.9652 77.988C68.4852 78.4387 68.7452 79.0107 68.7452 79.704V100.816C68.7452 101.475 68.4852 102.064 67.9652 102.584C67.4799 103.069 66.9079 103.312 66.2492 103.312C65.5559 103.312 64.9319 103.104 64.3772 102.688C63.8572 102.237 63.5972 101.683 63.5972 101.024V100.452C62.2799 101.388 61.0492 102.133 59.9052 102.688C58.7959 103.208 57.5652 103.468 56.2132 103.468ZM83.6473 103.26C81.8793 103.26 80.2846 102.809 78.8633 101.908C77.4766 100.972 76.3673 99.62 75.5353 97.852C74.7379 96.084 74.3393 93.9693 74.3393 91.508C74.3393 88.5267 74.8073 85.9787 75.7433 83.864C76.6793 81.7493 77.9793 80.1547 79.6433 79.08C81.3073 77.9707 83.2313 77.416 85.4153 77.416C87.1486 77.416 89.0033 77.8147 90.9793 78.612L91.2393 70.552C91.2739 69.8587 91.5339 69.2693 92.0193 68.784C92.5393 68.264 93.1459 68.004 93.8393 68.004C94.4979 68.004 95.0699 68.264 95.5553 68.784C96.0753 69.2693 96.3179 69.8933 96.2833 70.656L95.5553 100.92C95.5206 101.613 95.2606 102.185 94.7753 102.636C94.2899 103.087 93.7006 103.312 93.0073 103.312C92.3486 103.312 91.7766 103.121 91.2913 102.74C90.8406 102.359 90.6153 101.856 90.6153 101.232V100.296C89.7139 101.128 88.6566 101.839 87.4433 102.428C86.2299 102.983 84.9646 103.26 83.6473 103.26ZM84.0633 98.58C85.2419 98.58 86.3339 98.3373 87.3393 97.852C88.3793 97.332 89.1939 96.708 89.7833 95.98C90.3726 95.252 90.6846 94.576 90.7193 93.952L90.9273 83.708C90.3033 83.292 89.5059 82.928 88.5353 82.616C87.5646 82.2693 86.6286 82.096 85.7273 82.096C83.6126 82.096 82.0179 82.8933 80.9433 84.488C79.8686 86.048 79.3313 88.336 79.3313 91.352C79.3313 93.848 79.7473 95.6853 80.5793 96.864C81.4459 98.008 82.6073 98.58 84.0633 98.58ZM105.979 75.18C105.321 75.18 104.731 74.92 104.211 74.4C103.726 73.88 103.501 73.2907 103.535 72.632L103.587 70.708C103.622 70.0493 103.882 69.4773 104.367 68.992C104.853 68.5067 105.425 68.264 106.083 68.264C106.742 68.264 107.314 68.524 107.799 69.044C108.319 69.564 108.562 70.136 108.527 70.76L108.475 72.736C108.441 73.4293 108.181 74.0187 107.695 74.504C107.245 74.9547 106.673 75.18 105.979 75.18ZM105.719 103.312C105.026 103.312 104.419 103.069 103.899 102.584C103.414 102.064 103.171 101.457 103.171 100.764L103.431 80.068C103.431 79.3747 103.674 78.7853 104.159 78.3C104.679 77.78 105.286 77.52 105.979 77.52C106.707 77.52 107.314 77.78 107.799 78.3C108.285 78.7853 108.527 79.3747 108.527 80.068L108.267 100.764C108.267 101.457 108.007 102.064 107.487 102.584C107.002 103.069 106.413 103.312 105.719 103.312ZM124.864 103.312C122.888 103.312 121.068 102.775 119.404 101.7C117.774 100.625 116.492 99.1693 115.556 97.332C114.62 95.46 114.152 93.432 114.152 91.248C114.152 88.7867 114.706 86.4987 115.816 84.384C116.925 82.2347 118.416 80.536 120.288 79.288C122.16 78.0053 124.17 77.364 126.32 77.364C128.296 77.364 130.098 77.9187 131.728 79.028C133.392 80.1373 134.692 81.6107 135.628 83.448C136.598 85.2853 137.084 87.2613 137.084 89.376C137.084 91.872 136.529 94.1947 135.42 96.344C134.31 98.4587 132.802 100.157 130.896 101.44C129.024 102.688 127.013 103.312 124.864 103.312ZM124.864 98.632C126.077 98.632 127.238 98.216 128.348 97.384C129.457 96.552 130.341 95.4427 131 94.056C131.658 92.6693 131.988 91.196 131.988 89.636C131.988 88.3187 131.728 87.088 131.208 85.944C130.688 84.7653 129.977 83.8293 129.076 83.136C128.174 82.408 127.186 82.044 126.112 82.044C124.898 82.044 123.754 82.4773 122.68 83.344C121.64 84.176 120.808 85.3027 120.184 86.724C119.56 88.1107 119.248 89.6013 119.248 91.196C119.248 92.756 119.508 94.0907 120.028 95.2C120.582 96.3093 121.276 97.1587 122.108 97.748C122.974 98.3373 123.893 98.632 124.864 98.632Z" fill="black"/>
</svg>
