<svg width="240" height="135" viewBox="0 0 240 135" fill="none" xmlns="http://www.w3.org/2000/svg">
<g filter="url(#filter0_d_114_5)">
<path d="M9.448 56.416C8.02667 56.416 7.316 55.7573 7.316 54.44V22.72C7.316 22.2693 7.472 21.888 7.784 21.576C8.13067 21.2293 8.52933 21.056 8.98 21.056H18.34C20.836 21.056 22.9333 21.4893 24.632 22.356C26.3653 23.188 27.648 24.28 28.48 25.632C29.3467 26.9493 29.78 28.3187 29.78 29.74C29.78 31.4387 29.4507 32.8947 28.792 34.108C28.168 35.3213 27.3533 36.292 26.348 37.02C30.6813 38.6147 32.848 41.4747 32.848 45.6C32.848 49.0667 30.8893 51.736 26.972 53.608C23.0547 55.48 17.2133 56.416 9.448 56.416ZM20.472 36.136C21.5813 36.136 22.604 35.8413 23.54 35.252C24.476 34.6627 25.204 33.8827 25.724 32.912C26.244 31.9413 26.504 30.936 26.504 29.896C26.504 28.232 25.776 26.88 24.32 25.84C22.864 24.7653 20.8707 24.228 18.34 24.228H10.696V36.136H20.472ZM10.696 53.296C16.1733 53.2613 20.68 52.6027 24.216 51.32C27.752 50.0373 29.52 48.1307 29.52 45.6C29.52 43.728 28.74 42.22 27.18 41.076C25.62 39.8973 23.54 39.308 20.94 39.308H10.696V53.296ZM46.3741 56.468C44.4328 56.468 42.8901 56.0347 41.7461 55.168C40.6368 54.3013 39.8221 52.828 39.3021 50.748C38.7821 48.668 38.5221 45.7733 38.5221 42.064C38.5221 38.0773 38.7301 34.8013 39.1461 32.236C39.2501 31.5427 39.4234 31.0573 39.6661 30.78C39.9434 30.468 40.3248 30.312 40.8101 30.312C41.2261 30.312 41.5728 30.4507 41.8501 30.728C42.1621 31.0053 42.3181 31.3867 42.3181 31.872C42.3181 32.392 42.2661 33.068 42.1621 33.9C41.8501 36.396 41.6941 39.5333 41.6941 43.312C41.6941 46.952 42.0581 49.5693 42.7861 51.164C43.5141 52.7587 44.7274 53.556 46.4261 53.556C47.9861 53.556 49.5461 53.1573 51.1061 52.36C52.7008 51.528 53.8274 50.7307 54.4861 49.968C54.9021 49.4827 55.1101 48.7027 55.1101 47.628L55.3181 31.768C55.3181 31.352 55.4741 31.0053 55.7861 30.728C56.0981 30.4507 56.4621 30.312 56.8781 30.312C57.2941 30.312 57.6581 30.4507 57.9701 30.728C58.2821 31.0053 58.4381 31.352 58.4381 31.768V54.7C58.4381 55.116 58.2648 55.4973 57.9181 55.844C57.5714 56.156 57.1728 56.312 56.7221 56.312C56.1674 56.312 55.7168 56.1387 55.3701 55.792C55.0581 55.4453 54.9021 55.012 54.9021 54.492V52.516C54.1394 53.5213 52.9608 54.44 51.3661 55.272C49.8061 56.0693 48.1421 56.468 46.3741 56.468ZM67.5247 56.312C67.1087 56.312 66.7274 56.156 66.3807 55.844C66.034 55.532 65.8607 55.1853 65.8607 54.804V31.924C65.8607 31.4733 66.0167 31.1093 66.3287 30.832C66.6754 30.52 67.074 30.364 67.5247 30.364C68.01 30.364 68.4087 30.52 68.7207 30.832C69.0327 31.1093 69.1887 31.4733 69.1887 31.924V36.344C70.1594 34.6453 71.3554 33.2067 72.7767 32.028C74.2327 30.8147 75.9314 30.208 77.8727 30.208C79.398 30.208 80.49 30.6413 81.1487 31.508C81.842 32.34 82.1887 33.3453 82.1887 34.524V36.188C82.1887 36.6387 82.0327 37.02 81.7207 37.332C81.4087 37.6093 81.0274 37.748 80.5767 37.748C80.0567 37.748 79.6754 37.592 79.4327 37.28C79.19 36.968 79.0687 36.5867 79.0687 36.136V34.94C79.0687 33.9347 78.4794 33.432 77.3007 33.432C75.2554 33.432 73.1407 34.888 70.9567 37.8C70.4367 38.4933 70.0034 39.36 69.6567 40.4C69.3447 41.44 69.1887 42.4107 69.1887 43.312L69.1367 54.804C69.1367 55.1853 68.9634 55.532 68.6167 55.844C68.3047 56.156 67.9407 56.312 67.5247 56.312ZM88.1927 56.312C87.742 56.312 87.3433 56.156 86.9967 55.844C86.6847 55.532 86.5287 55.1853 86.5287 54.804V31.872C86.5287 31.4213 86.6847 31.0573 86.9967 30.78C87.3433 30.468 87.742 30.312 88.1927 30.312C88.6433 30.312 89.0247 30.468 89.3367 30.78C89.6487 31.0573 89.8047 31.4213 89.8047 31.872V40.088C90.81 36.968 92.1967 34.576 93.9647 32.912C95.7673 31.2133 97.7953 30.364 100.049 30.364C101.955 30.364 103.463 30.8493 104.573 31.82C105.682 32.7907 106.479 34.3333 106.965 36.448C107.45 38.528 107.693 41.336 107.693 44.872C107.693 48.3387 107.675 50.6093 107.641 51.684V54.648C107.641 55.0987 107.485 55.4973 107.173 55.844C106.895 56.156 106.531 56.312 106.081 56.312C105.665 56.312 105.301 56.156 104.989 55.844C104.677 55.4973 104.521 55.116 104.521 54.7V51.788C104.486 50.7133 104.469 48.4773 104.469 45.08C104.469 41.856 104.295 39.412 103.949 37.748C103.637 36.084 103.134 34.9573 102.441 34.368C101.782 33.744 100.829 33.432 99.5807 33.432C98.402 33.432 97.2407 33.8653 96.0967 34.732C94.9527 35.5987 93.9473 36.8293 93.0807 38.424C91.9367 40.504 91.1047 42.4627 90.5847 44.3C90.0993 46.1373 89.8393 48.0267 89.8047 49.968L89.7527 54.596C89.7527 55.0813 89.5967 55.4973 89.2847 55.844C89.0073 56.156 88.6433 56.312 88.1927 56.312ZM122.655 56.312C120.956 56.312 119.414 55.844 118.027 54.908C116.675 53.972 115.6 52.62 114.803 50.852C114.006 49.0493 113.607 46.952 113.607 44.56C113.607 40.1227 114.595 36.656 116.571 34.16C118.547 31.664 121.268 30.416 124.735 30.416C127.058 30.416 129.363 31.0227 131.651 32.236L131.911 21.888C131.911 21.4373 132.084 21.056 132.431 20.744C132.778 20.3973 133.176 20.224 133.627 20.224C134.043 20.224 134.407 20.3973 134.719 20.744C135.066 21.0907 135.239 21.4893 135.239 21.94L134.459 54.752C134.459 55.2027 134.286 55.584 133.939 55.896C133.627 56.1733 133.246 56.312 132.795 56.312C132.31 56.312 131.911 56.1387 131.599 55.792C131.287 55.4107 131.148 54.9773 131.183 54.492L131.235 52.36C128.531 54.9947 125.671 56.312 122.655 56.312ZM122.707 53.244C124.302 53.244 125.758 52.9147 127.075 52.256C128.392 51.5973 129.415 50.8173 130.143 49.916C130.906 48.98 131.304 48.1653 131.339 47.472L131.599 35.46C130.836 35.0093 129.831 34.576 128.583 34.16C127.37 33.744 126.139 33.536 124.891 33.536C122.222 33.536 120.211 34.4893 118.859 36.396C117.507 38.3027 116.831 40.972 116.831 44.404C116.831 47.1773 117.351 49.344 118.391 50.904C119.466 52.464 120.904 53.244 122.707 53.244ZM151.737 56.312C149.761 56.312 147.958 55.792 146.329 54.752C144.734 53.6773 143.469 52.2387 142.533 50.436C141.632 48.5987 141.181 46.5707 141.181 44.352C141.181 41.9947 141.701 39.7413 142.741 37.592C143.816 35.4427 145.289 33.7093 147.161 32.392C149.033 31.04 151.096 30.364 153.349 30.364C155.29 30.364 157.058 30.9013 158.653 31.976C160.282 33.016 161.548 34.4547 162.449 36.292C163.385 38.0947 163.853 40.088 163.853 42.272C163.853 44.768 163.298 47.0907 162.189 49.24C161.08 51.3893 159.589 53.1053 157.717 54.388C155.88 55.6707 153.886 56.312 151.737 56.312ZM151.945 53.348C153.436 53.348 154.84 52.8453 156.157 51.84C157.474 50.8347 158.532 49.5 159.329 47.836C160.126 46.172 160.525 44.404 160.525 42.532C160.525 40.9027 160.196 39.3947 159.537 38.008C158.878 36.5867 157.977 35.46 156.833 34.628C155.724 33.7613 154.476 33.328 153.089 33.328C151.564 33.328 150.142 33.848 148.825 34.888C147.542 35.8933 146.502 37.2453 145.705 38.944C144.942 40.608 144.561 42.376 144.561 44.248C144.561 46.0507 144.89 47.6453 145.549 49.032C146.242 50.384 147.161 51.4413 148.305 52.204C149.449 52.9667 150.662 53.348 151.945 53.348ZM173.186 56.312C172.77 56.312 172.406 56.1907 172.094 55.948C171.782 55.6707 171.574 55.324 171.47 54.908L166.79 32.704L166.686 31.872C166.686 31.456 166.825 31.092 167.102 30.78C167.414 30.468 167.796 30.312 168.246 30.312C168.662 30.312 169.009 30.4507 169.286 30.728C169.598 30.9707 169.789 31.3 169.858 31.716L173.498 50.02L179.894 31.508C179.998 31.196 180.206 30.9187 180.518 30.676C180.83 30.4333 181.177 30.312 181.558 30.312C181.94 30.312 182.286 30.4507 182.598 30.728C182.945 31.0053 183.153 31.3347 183.222 31.716L187.694 50.28L193.258 31.612C193.362 31.2653 193.553 30.9707 193.83 30.728C194.142 30.4853 194.472 30.364 194.818 30.364C195.269 30.364 195.65 30.52 195.962 30.832C196.309 31.144 196.482 31.5253 196.482 31.976C196.482 32.08 196.448 32.184 196.378 32.288C196.344 32.392 196.326 32.4613 196.326 32.496L189.15 55.064C188.838 55.896 188.301 56.312 187.538 56.312C187.192 56.312 186.862 56.208 186.55 56C186.273 55.7573 186.082 55.428 185.978 55.012L181.35 36.76L174.694 55.116C174.556 55.4627 174.348 55.7573 174.07 56C173.793 56.208 173.498 56.312 173.186 56.312ZM202.704 56.312C202.254 56.312 201.855 56.156 201.508 55.844C201.196 55.532 201.04 55.1853 201.04 54.804V31.872C201.04 31.4213 201.196 31.0573 201.508 30.78C201.855 30.468 202.254 30.312 202.704 30.312C203.155 30.312 203.536 30.468 203.848 30.78C204.16 31.0573 204.316 31.4213 204.316 31.872V40.088C205.322 36.968 206.708 34.576 208.476 32.912C210.279 31.2133 212.307 30.364 214.56 30.364C216.467 30.364 217.975 30.8493 219.084 31.82C220.194 32.7907 220.991 34.3333 221.476 36.448C221.962 38.528 222.204 41.336 222.204 44.872C222.204 48.3387 222.187 50.6093 222.152 51.684V54.648C222.152 55.0987 221.996 55.4973 221.684 55.844C221.407 56.156 221.043 56.312 220.592 56.312C220.176 56.312 219.812 56.156 219.5 55.844C219.188 55.4973 219.032 55.116 219.032 54.7V51.788C218.998 50.7133 218.98 48.4773 218.98 45.08C218.98 41.856 218.807 39.412 218.46 37.748C218.148 36.084 217.646 34.9573 216.952 34.368C216.294 33.744 215.34 33.432 214.092 33.432C212.914 33.432 211.752 33.8653 210.608 34.732C209.464 35.5987 208.459 36.8293 207.592 38.424C206.448 40.504 205.616 42.4627 205.096 44.3C204.611 46.1373 204.351 48.0267 204.316 49.968L204.264 54.596C204.264 55.0813 204.108 55.4973 203.796 55.844C203.519 56.156 203.155 56.312 202.704 56.312Z" fill="#3C5B6F"/>
<circle cx="172.5" cy="63.5" r="63.5" fill="#3C5B6F"/>
<path d="M9.448 56.416C8.02667 56.416 7.316 55.7573 7.316 54.44V22.72C7.316 22.2693 7.472 21.888 7.784 21.576C8.13067 21.2293 8.52933 21.056 8.98 21.056H18.34C20.836 21.056 22.9333 21.4893 24.632 22.356C26.3653 23.188 27.648 24.28 28.48 25.632C29.3467 26.9493 29.78 28.3187 29.78 29.74C29.78 31.4387 29.4507 32.8947 28.792 34.108C28.168 35.3213 27.3533 36.292 26.348 37.02C30.6813 38.6147 32.848 41.4747 32.848 45.6C32.848 49.0667 30.8893 51.736 26.972 53.608C23.0547 55.48 17.2133 56.416 9.448 56.416ZM20.472 36.136C21.5813 36.136 22.604 35.8413 23.54 35.252C24.476 34.6627 25.204 33.8827 25.724 32.912C26.244 31.9413 26.504 30.936 26.504 29.896C26.504 28.232 25.776 26.88 24.32 25.84C22.864 24.7653 20.8707 24.228 18.34 24.228H10.696V36.136H20.472ZM10.696 53.296C16.1733 53.2613 20.68 52.6027 24.216 51.32C27.752 50.0373 29.52 48.1307 29.52 45.6C29.52 43.728 28.74 42.22 27.18 41.076C25.62 39.8973 23.54 39.308 20.94 39.308H10.696V53.296ZM46.3741 56.468C44.4328 56.468 42.8901 56.0347 41.7461 55.168C40.6368 54.3013 39.8221 52.828 39.3021 50.748C38.7821 48.668 38.5221 45.7733 38.5221 42.064C38.5221 38.0773 38.7301 34.8013 39.1461 32.236C39.2501 31.5427 39.4234 31.0573 39.6661 30.78C39.9434 30.468 40.3248 30.312 40.8101 30.312C41.2261 30.312 41.5728 30.4507 41.8501 30.728C42.1621 31.0053 42.3181 31.3867 42.3181 31.872C42.3181 32.392 42.2661 33.068 42.1621 33.9C41.8501 36.396 41.6941 39.5333 41.6941 43.312C41.6941 46.952 42.0581 49.5693 42.7861 51.164C43.5141 52.7587 44.7274 53.556 46.4261 53.556C47.9861 53.556 49.5461 53.1573 51.1061 52.36C52.7008 51.528 53.8274 50.7307 54.4861 49.968C54.9021 49.4827 55.1101 48.7027 55.1101 47.628L55.3181 31.768C55.3181 31.352 55.4741 31.0053 55.7861 30.728C56.0981 30.4507 56.4621 30.312 56.8781 30.312C57.2941 30.312 57.6581 30.4507 57.9701 30.728C58.2821 31.0053 58.4381 31.352 58.4381 31.768V54.7C58.4381 55.116 58.2648 55.4973 57.9181 55.844C57.5714 56.156 57.1728 56.312 56.7221 56.312C56.1674 56.312 55.7168 56.1387 55.3701 55.792C55.0581 55.4453 54.9021 55.012 54.9021 54.492V52.516C54.1394 53.5213 52.9608 54.44 51.3661 55.272C49.8061 56.0693 48.1421 56.468 46.3741 56.468ZM67.5247 56.312C67.1087 56.312 66.7274 56.156 66.3807 55.844C66.034 55.532 65.8607 55.1853 65.8607 54.804V31.924C65.8607 31.4733 66.0167 31.1093 66.3287 30.832C66.6754 30.52 67.074 30.364 67.5247 30.364C68.01 30.364 68.4087 30.52 68.7207 30.832C69.0327 31.1093 69.1887 31.4733 69.1887 31.924V36.344C70.1594 34.6453 71.3554 33.2067 72.7767 32.028C74.2327 30.8147 75.9314 30.208 77.8727 30.208C79.398 30.208 80.49 30.6413 81.1487 31.508C81.842 32.34 82.1887 33.3453 82.1887 34.524V36.188C82.1887 36.6387 82.0327 37.02 81.7207 37.332C81.4087 37.6093 81.0274 37.748 80.5767 37.748C80.0567 37.748 79.6754 37.592 79.4327 37.28C79.19 36.968 79.0687 36.5867 79.0687 36.136V34.94C79.0687 33.9347 78.4794 33.432 77.3007 33.432C75.2554 33.432 73.1407 34.888 70.9567 37.8C70.4367 38.4933 70.0034 39.36 69.6567 40.4C69.3447 41.44 69.1887 42.4107 69.1887 43.312L69.1367 54.804C69.1367 55.1853 68.9634 55.532 68.6167 55.844C68.3047 56.156 67.9407 56.312 67.5247 56.312ZM88.1927 56.312C87.742 56.312 87.3433 56.156 86.9967 55.844C86.6847 55.532 86.5287 55.1853 86.5287 54.804V31.872C86.5287 31.4213 86.6847 31.0573 86.9967 30.78C87.3433 30.468 87.742 30.312 88.1927 30.312C88.6433 30.312 89.0247 30.468 89.3367 30.78C89.6487 31.0573 89.8047 31.4213 89.8047 31.872V40.088C90.81 36.968 92.1967 34.576 93.9647 32.912C95.7673 31.2133 97.7953 30.364 100.049 30.364C101.955 30.364 103.463 30.8493 104.573 31.82C105.682 32.7907 106.479 34.3333 106.965 36.448C107.45 38.528 107.693 41.336 107.693 44.872C107.693 48.3387 107.675 50.6093 107.641 51.684V54.648C107.641 55.0987 107.485 55.4973 107.173 55.844C106.895 56.156 106.531 56.312 106.081 56.312C105.665 56.312 105.301 56.156 104.989 55.844C104.677 55.4973 104.521 55.116 104.521 54.7V51.788C104.486 50.7133 104.469 48.4773 104.469 45.08C104.469 41.856 104.295 39.412 103.949 37.748C103.637 36.084 103.134 34.9573 102.441 34.368C101.782 33.744 100.829 33.432 99.5807 33.432C98.402 33.432 97.2407 33.8653 96.0967 34.732C94.9527 35.5987 93.9473 36.8293 93.0807 38.424C91.9367 40.504 91.1047 42.4627 90.5847 44.3C90.0993 46.1373 89.8393 48.0267 89.8047 49.968L89.7527 54.596C89.7527 55.0813 89.5967 55.4973 89.2847 55.844C89.0073 56.156 88.6433 56.312 88.1927 56.312Z" fill="#3C5B6F"/>
<path d="M122.655 56.312C120.956 56.312 119.414 55.844 118.027 54.908C116.675 53.972 115.6 52.62 114.803 50.852C114.006 49.0493 113.607 46.952 113.607 44.56C113.607 40.1227 114.595 36.656 116.571 34.16C118.547 31.664 121.268 30.416 124.735 30.416C127.058 30.416 129.363 31.0227 131.651 32.236L131.911 21.888C131.911 21.4373 132.084 21.056 132.431 20.744C132.778 20.3973 133.176 20.224 133.627 20.224C134.043 20.224 134.407 20.3973 134.719 20.744C135.066 21.0907 135.239 21.4893 135.239 21.94L134.459 54.752C134.459 55.2027 134.286 55.584 133.939 55.896C133.627 56.1733 133.246 56.312 132.795 56.312C132.31 56.312 131.911 56.1387 131.599 55.792C131.287 55.4107 131.148 54.9773 131.183 54.492L131.235 52.36C128.531 54.9947 125.671 56.312 122.655 56.312ZM122.707 53.244C124.302 53.244 125.758 52.9147 127.075 52.256C128.392 51.5973 129.415 50.8173 130.143 49.916C130.906 48.98 131.304 48.1653 131.339 47.472L131.599 35.46C130.836 35.0093 129.831 34.576 128.583 34.16C127.37 33.744 126.139 33.536 124.891 33.536C122.222 33.536 120.211 34.4893 118.859 36.396C117.507 38.3027 116.831 40.972 116.831 44.404C116.831 47.1773 117.351 49.344 118.391 50.904C119.466 52.464 120.904 53.244 122.707 53.244ZM151.737 56.312C149.761 56.312 147.958 55.792 146.329 54.752C144.734 53.6773 143.469 52.2387 142.533 50.436C141.632 48.5987 141.181 46.5707 141.181 44.352C141.181 41.9947 141.701 39.7413 142.741 37.592C143.816 35.4427 145.289 33.7093 147.161 32.392C149.033 31.04 151.096 30.364 153.349 30.364C155.29 30.364 157.058 30.9013 158.653 31.976C160.282 33.016 161.548 34.4547 162.449 36.292C163.385 38.0947 163.853 40.088 163.853 42.272C163.853 44.768 163.298 47.0907 162.189 49.24C161.08 51.3893 159.589 53.1053 157.717 54.388C155.88 55.6707 153.886 56.312 151.737 56.312ZM151.945 53.348C153.436 53.348 154.84 52.8453 156.157 51.84C157.474 50.8347 158.532 49.5 159.329 47.836C160.126 46.172 160.525 44.404 160.525 42.532C160.525 40.9027 160.196 39.3947 159.537 38.008C158.878 36.5867 157.977 35.46 156.833 34.628C155.724 33.7613 154.476 33.328 153.089 33.328C151.564 33.328 150.142 33.848 148.825 34.888C147.542 35.8933 146.502 37.2453 145.705 38.944C144.942 40.608 144.561 42.376 144.561 44.248C144.561 46.0507 144.89 47.6453 145.549 49.032C146.242 50.384 147.161 51.4413 148.305 52.204C149.449 52.9667 150.662 53.348 151.945 53.348ZM173.186 56.312C172.77 56.312 172.406 56.1907 172.094 55.948C171.782 55.6707 171.574 55.324 171.47 54.908L166.79 32.704L166.686 31.872C166.686 31.456 166.825 31.092 167.102 30.78C167.414 30.468 167.796 30.312 168.246 30.312C168.662 30.312 169.009 30.4507 169.286 30.728C169.598 30.9707 169.789 31.3 169.858 31.716L173.498 50.02L179.894 31.508C179.998 31.196 180.206 30.9187 180.518 30.676C180.83 30.4333 181.177 30.312 181.558 30.312C181.94 30.312 182.286 30.4507 182.598 30.728C182.945 31.0053 183.153 31.3347 183.222 31.716L187.694 50.28L193.258 31.612C193.362 31.2653 193.553 30.9707 193.83 30.728C194.142 30.4853 194.472 30.364 194.818 30.364C195.269 30.364 195.65 30.52 195.962 30.832C196.309 31.144 196.482 31.5253 196.482 31.976C196.482 32.08 196.448 32.184 196.378 32.288C196.344 32.392 196.326 32.4613 196.326 32.496L189.15 55.064C188.838 55.896 188.301 56.312 187.538 56.312C187.192 56.312 186.862 56.208 186.55 56C186.273 55.7573 186.082 55.428 185.978 55.012L181.35 36.76L174.694 55.116C174.556 55.4627 174.348 55.7573 174.07 56C173.793 56.208 173.498 56.312 173.186 56.312ZM202.704 56.312C202.254 56.312 201.855 56.156 201.508 55.844C201.196 55.532 201.04 55.1853 201.04 54.804V31.872C201.04 31.4213 201.196 31.0573 201.508 30.78C201.855 30.468 202.254 30.312 202.704 30.312C203.155 30.312 203.536 30.468 203.848 30.78C204.16 31.0573 204.316 31.4213 204.316 31.872V40.088C205.322 36.968 206.708 34.576 208.476 32.912C210.279 31.2133 212.307 30.364 214.56 30.364C216.467 30.364 217.975 30.8493 219.084 31.82C220.194 32.7907 220.991 34.3333 221.476 36.448C221.962 38.528 222.204 41.336 222.204 44.872C222.204 48.3387 222.187 50.6093 222.152 51.684V54.648C222.152 55.0987 221.996 55.4973 221.684 55.844C221.407 56.156 221.043 56.312 220.592 56.312C220.176 56.312 219.812 56.156 219.5 55.844C219.188 55.4973 219.032 55.116 219.032 54.7V51.788C218.998 50.7133 218.98 48.4773 218.98 45.08C218.98 41.856 218.807 39.412 218.46 37.748C218.148 36.084 217.646 34.9573 216.952 34.368C216.294 33.744 215.34 33.432 214.092 33.432C212.914 33.432 211.752 33.8653 210.608 34.732C209.464 35.5987 208.459 36.8293 207.592 38.424C206.448 40.504 205.616 42.4627 205.096 44.3C204.611 46.1373 204.351 48.0267 204.316 49.968L204.264 54.596C204.264 55.0813 204.108 55.4973 203.796 55.844C203.519 56.156 203.155 56.312 202.704 56.312Z" fill="white"/>
<path d="M17.04 103.312C14.0587 103.312 11.4587 102.653 9.24 101.336C7.056 100.019 5.51333 98.4067 4.612 96.5C4.23067 95.668 4.04 94.992 4.04 94.472C4.04 93.744 4.3 93.1373 4.82 92.652C5.34 92.132 5.964 91.872 6.692 91.872C7.316 91.872 7.85333 92.0453 8.304 92.392C8.75467 92.7387 9.084 93.2067 9.292 93.796C9.84667 95.2867 10.8693 96.4307 12.36 97.228C13.8507 98.0253 15.4453 98.424 17.144 98.424C19.2933 98.424 21.0613 97.9213 22.448 96.916C23.8693 95.876 24.58 94.6107 24.58 93.12C24.58 91.976 24.008 90.936 22.864 90C21.7547 89.064 19.848 88.2147 17.144 87.452C13.6427 86.4813 10.8867 85.2333 8.876 83.708C6.86533 82.148 5.86 80.016 5.86 77.312C5.86 75.4747 6.34533 73.8453 7.316 72.424C8.32133 70.968 9.74267 69.8413 11.58 69.044C13.4173 68.2467 15.5667 67.848 18.028 67.848C21.564 67.848 24.3373 68.5413 26.348 69.928C28.3933 71.3147 29.416 73.1693 29.416 75.492C29.416 76.2547 29.1733 76.896 28.688 77.416C28.2027 77.936 27.596 78.196 26.868 78.196C26.244 78.196 25.7067 77.988 25.256 77.572C24.8053 77.156 24.5453 76.636 24.476 76.012C24.3373 75.0413 23.696 74.244 22.552 73.62C21.408 72.9613 19.9 72.632 18.028 72.632C15.7053 72.632 13.9373 73.0307 12.724 73.828C11.5107 74.5907 10.904 75.6307 10.904 76.948C10.904 78.1613 11.528 79.184 12.776 80.016C14.024 80.848 16.0693 81.68 18.912 82.512C22.4133 83.5173 25.0653 84.8693 26.868 86.568C28.6707 88.2667 29.572 90.364 29.572 92.86C29.572 94.8013 29 96.5693 27.856 98.164C26.712 99.7587 25.1693 101.024 23.228 101.96C21.3213 102.861 19.2587 103.312 17.04 103.312ZM39.5507 103.364C38.8921 103.364 38.3027 103.121 37.7827 102.636C37.2974 102.151 37.0547 101.579 37.0547 100.92V82.356H32.9467C32.2534 82.356 31.6641 82.1133 31.1787 81.628C30.6934 81.108 30.4507 80.5187 30.4507 79.86C30.4507 79.0973 30.7107 78.4907 31.2307 78.04C31.7507 77.5547 32.3574 77.312 33.0507 77.312H37.0547V71.748C37.0547 71.0893 37.2974 70.5 37.7827 69.98C38.2681 69.46 38.8574 69.2 39.5507 69.2C40.2787 69.2 40.8681 69.46 41.3187 69.98C41.8041 70.4653 42.0467 71.0547 42.0467 71.748V77.312H46.4667C47.1601 77.312 47.7494 77.5547 48.2347 78.04C48.7201 78.5253 48.9627 79.132 48.9627 79.86C48.9627 80.5187 48.7201 81.108 48.2347 81.628C47.7494 82.1133 47.1601 82.356 46.4667 82.356H42.0467V100.92C42.0467 101.579 41.8041 102.151 41.3187 102.636C40.8334 103.121 40.2441 103.364 39.5507 103.364ZM59.2132 103.468C57.3412 103.468 55.8506 103.069 54.7412 102.272C53.6319 101.44 52.7999 99.9493 52.2452 97.8C51.6906 95.6507 51.4132 92.5653 51.4132 88.544C51.4132 87.192 51.4652 85.7013 51.5692 84.072C51.6732 82.4427 51.8119 81.0733 51.9852 79.964C52.1239 79.0973 52.3839 78.4387 52.7652 77.988C53.1466 77.5373 53.7012 77.312 54.4292 77.312C55.1226 77.312 55.7119 77.52 56.1972 77.936C56.6826 78.352 56.9252 78.9587 56.9252 79.756L56.8212 81.212C56.4746 84.1587 56.3012 86.984 56.3012 89.688C56.3012 93.224 56.5959 95.6333 57.1852 96.916C57.8092 98.164 58.6586 98.788 59.7332 98.788C60.9812 98.788 62.2639 98.4587 63.5812 97.8C64.8986 97.1067 65.8346 96.448 66.3892 95.824C66.5972 95.616 66.7012 95.1827 66.7012 94.524L66.8052 79.704C66.8052 79.0107 67.0479 78.4387 67.5332 77.988C68.0532 77.5373 68.6252 77.312 69.2492 77.312C69.9079 77.312 70.4799 77.5373 70.9652 77.988C71.4852 78.4387 71.7452 79.0107 71.7452 79.704V100.816C71.7452 101.475 71.4852 102.064 70.9652 102.584C70.4799 103.069 69.9079 103.312 69.2492 103.312C68.5559 103.312 67.9319 103.104 67.3772 102.688C66.8572 102.237 66.5972 101.683 66.5972 101.024V100.452C65.2799 101.388 64.0492 102.133 62.9052 102.688C61.7959 103.208 60.5652 103.468 59.2132 103.468ZM86.6473 103.26C84.8793 103.26 83.2846 102.809 81.8633 101.908C80.4766 100.972 79.3673 99.62 78.5353 97.852C77.7379 96.084 77.3393 93.9693 77.3393 91.508C77.3393 88.5267 77.8073 85.9787 78.7433 83.864C79.6793 81.7493 80.9793 80.1547 82.6433 79.08C84.3073 77.9707 86.2313 77.416 88.4153 77.416C90.1486 77.416 92.0033 77.8147 93.9793 78.612L94.2393 70.552C94.2739 69.8587 94.5339 69.2693 95.0193 68.784C95.5393 68.264 96.1459 68.004 96.8393 68.004C97.4979 68.004 98.0699 68.264 98.5553 68.784C99.0753 69.2693 99.3179 69.8933 99.2833 70.656L98.5553 100.92C98.5206 101.613 98.2606 102.185 97.7753 102.636C97.2899 103.087 96.7006 103.312 96.0073 103.312C95.3486 103.312 94.7766 103.121 94.2913 102.74C93.8406 102.359 93.6153 101.856 93.6153 101.232V100.296C92.7139 101.128 91.6566 101.839 90.4433 102.428C89.2299 102.983 87.9646 103.26 86.6473 103.26ZM87.0633 98.58C88.2419 98.58 89.3339 98.3373 90.3393 97.852C91.3793 97.332 92.1939 96.708 92.7833 95.98C93.3726 95.252 93.6846 94.576 93.7193 93.952L93.9273 83.708C93.3033 83.292 92.5059 82.928 91.5353 82.616C90.5646 82.2693 89.6286 82.096 88.7273 82.096C86.6126 82.096 85.0179 82.8933 83.9433 84.488C82.8686 86.048 82.3313 88.336 82.3313 91.352C82.3313 93.848 82.7473 95.6853 83.5793 96.864C84.4459 98.008 85.6073 98.58 87.0633 98.58ZM108.979 75.18C108.321 75.18 107.731 74.92 107.211 74.4C106.726 73.88 106.501 73.2907 106.535 72.632L106.587 70.708C106.622 70.0493 106.882 69.4773 107.367 68.992C107.853 68.5067 108.425 68.264 109.083 68.264C109.742 68.264 110.314 68.524 110.799 69.044C111.319 69.564 111.562 70.136 111.527 70.76L111.475 72.736C111.441 73.4293 111.181 74.0187 110.695 74.504C110.245 74.9547 109.673 75.18 108.979 75.18ZM108.719 103.312C108.026 103.312 107.419 103.069 106.899 102.584C106.414 102.064 106.171 101.457 106.171 100.764L106.431 80.068C106.431 79.3747 106.674 78.7853 107.159 78.3C107.679 77.78 108.286 77.52 108.979 77.52C109.707 77.52 110.314 77.78 110.799 78.3C111.285 78.7853 111.527 79.3747 111.527 80.068L111.267 100.764C111.267 101.457 111.007 102.064 110.487 102.584C110.002 103.069 109.413 103.312 108.719 103.312ZM127.864 103.312C125.888 103.312 124.068 102.775 122.404 101.7C120.774 100.625 119.492 99.1693 118.556 97.332C117.62 95.46 117.152 93.432 117.152 91.248C117.152 88.7867 117.706 86.4987 118.816 84.384C119.925 82.2347 121.416 80.536 123.288 79.288C125.16 78.0053 127.17 77.364 129.32 77.364C131.296 77.364 133.098 77.9187 134.728 79.028C136.392 80.1373 137.692 81.6107 138.628 83.448C139.598 85.2853 140.084 87.2613 140.084 89.376C140.084 91.872 139.529 94.1947 138.42 96.344C137.31 98.4587 135.802 100.157 133.896 101.44C132.024 102.688 130.013 103.312 127.864 103.312ZM127.864 98.632C129.077 98.632 130.238 98.216 131.348 97.384C132.457 96.552 133.341 95.4427 134 94.056C134.658 92.6693 134.988 91.196 134.988 89.636C134.988 88.3187 134.728 87.088 134.208 85.944C133.688 84.7653 132.977 83.8293 132.076 83.136C131.174 82.408 130.186 82.044 129.112 82.044C127.898 82.044 126.754 82.4773 125.68 83.344C124.64 84.176 123.808 85.3027 123.184 86.724C122.56 88.1107 122.248 89.6013 122.248 91.196C122.248 92.756 122.508 94.0907 123.028 95.2C123.582 96.3093 124.276 97.1587 125.108 97.748C125.974 98.3373 126.893 98.632 127.864 98.632Z" fill="black"/>
</g>
<defs>
<filter id="filter0_d_114_5" x="0.039978" y="0" width="239.96" height="135" filterUnits="userSpaceOnUse" color-interpolation-filters="sRGB">
<feFlood flood-opacity="0" result="BackgroundImageFix"/>
<feColorMatrix in="SourceAlpha" type="matrix" values="0 0 0 0 0 0 0 0 0 0 0 0 0 0 0 0 0 0 127 0" result="hardAlpha"/>
<feOffset dy="4"/>
<feGaussianBlur stdDeviation="2"/>
<feComposite in2="hardAlpha" operator="out"/>
<feColorMatrix type="matrix" values="0 0 0 0 0 0 0 0 0 0 0 0 0 0 0 0 0 0 0.25 0"/>
<feBlend mode="normal" in2="BackgroundImageFix" result="effect1_dropShadow_114_5"/>
<feBlend mode="normal" in="SourceGraphic" in2="effect1_dropShadow_114_5" result="shape"/>
</filter>
</defs>
</svg>
